<?xml version="1.0" encoding="UTF-8"?>
<svg version="1.1" xmlns="http://www.w3.org/2000/svg" width="200" height="200">
<path d="M0 0 C7.50377536 6.86587052 12.54844239 16.53822272 14.99609375 26.34765625 C15.17785156 27.07210937 15.35960937 27.7965625 15.546875 28.54296875 C18.1683041 44.90980436 15.54294435 61.58838084 5.99609375 75.34765625 C-7.85788716 92.88047205 -24.55809313 100.04899152 -45.61767578 105.69970703 C-48.79058548 106.56126855 -51.92987091 107.4860105 -55.06640625 108.47265625 C-56.38318359 108.87871094 -56.38318359 108.87871094 -57.7265625 109.29296875 C-60.42103225 110.54083639 -62.03203464 112.15263981 -64.00390625 114.34765625 C-61.63036917 113.4288677 -59.28653037 112.48104171 -56.984375 111.39453125 C-47.21599469 106.80972228 -35.98986467 103.89644277 -25.44140625 107.59765625 C-21.32287177 110.5545528 -21.32287177 110.5545528 -20.00390625 113.34765625 C-20.00390625 117.32899456 -20.30791228 119.51246348 -22.87890625 122.59765625 C-30.72971444 126.99410883 -38.47010094 127.61840188 -47.31640625 127.66015625 C-48.1762915 127.66563477 -49.03617676 127.67111328 -49.92211914 127.67675781 C-54.66777695 127.62316066 -58.54709992 127.17254759 -63.00390625 125.34765625 C-62.34390625 127.65765625 -61.68390625 129.96765625 -61.00390625 132.34765625 C-57.58933176 131.93124473 -55.07629815 131.38536037 -52.00390625 129.78515625 C-46.02626836 127.08385233 -38.0224187 127.15065254 -31.80078125 129.00390625 C-28.64223261 130.78250645 -27.96492077 132.47837227 -26.94140625 135.91015625 C-27.00390625 139.34765625 -27.00390625 139.34765625 -28.31640625 141.22265625 C-32.25737626 143.84996959 -35.96990035 143.53883419 -40.56640625 143.53515625 C-41.78626221 143.53612305 -41.78626221 143.53612305 -43.03076172 143.53710938 C-48.62022838 143.48785311 -53.62024968 142.94281375 -59.00390625 141.34765625 C-59.66390625 143.65765625 -60.32390625 145.96765625 -61.00390625 148.34765625 C-62.56640625 147.28515625 -62.56640625 147.28515625 -64.00390625 145.34765625 C-63.79765625 144.25453125 -63.59140625 143.16140625 -63.37890625 142.03515625 C-63.25515625 140.81828125 -63.13140625 139.60140625 -63.00390625 138.34765625 C-64.20356552 136.88861119 -65.41516529 135.43394863 -66.734375 134.08203125 C-68.81617408 131.23797343 -69.00597103 128.08602551 -69.53125 124.6640625 C-69.89481854 122.16949661 -69.89481854 122.16949661 -71.69140625 119.72265625 C-73.37246 116.68074947 -73.10639615 114.78335782 -72.71875 111.41015625 C-70.58937753 105.26639306 -65.85269714 102.86277434 -60.33862305 100.15649414 C-54.64614151 97.46246834 -48.74847719 95.38305941 -42.81640625 93.28515625 C-25.37391185 87.07790463 -10.51491045 78.51941839 -2.00390625 61.34765625 C2.68361979 49.91636599 3.35422785 37.68230233 -1.30078125 26.12890625 C-6.57841111 15.1383781 -13.18111211 8.18668851 -24.47265625 3.2734375 C-37.36213029 -1.25112102 -50.31269786 -0.6205007 -62.89453125 4.53125 C-74.00426262 10.00853376 -80.95183333 18.75327953 -85.00390625 30.34765625 C-88.40593183 41.25204351 -87.64876058 51.89651221 -82.94140625 62.28515625 C-77.70327253 72.17598522 -69.98379114 79.73019941 -59.50390625 83.66015625 C-51.11171021 85.30862333 -44.33969977 84.30331518 -36.8671875 80.1640625 C-29.88866891 75.47183952 -25.6543033 68.23861111 -23.00390625 60.34765625 C-22.13832257 52.9600002 -22.43038917 47.31863688 -27.00390625 41.34765625 C-29.36700848 38.98455402 -30.28011126 38.36593933 -33.6328125 38.28125 C-34.41527344 38.30316406 -35.19773437 38.32507813 -36.00390625 38.34765625 C-35.95169922 39.56001953 -35.95169922 39.56001953 -35.8984375 40.796875 C-35.87136719 41.86550781 -35.84429687 42.93414062 -35.81640625 44.03515625 C-35.76419922 45.61876953 -35.76419922 45.61876953 -35.7109375 47.234375 C-36.04068013 50.73844005 -36.94408154 52.52921317 -39.00390625 55.34765625 C-41.54620231 57.27629464 -42.78735643 57.35667916 -46.00390625 57.22265625 C-49.5419112 56.19073814 -50.92163179 55.39098046 -53.00390625 52.34765625 C-54.14516093 45.88054641 -51.35257376 41.62180757 -48.00390625 36.34765625 C-51.82819291 33.64815979 -54.32930523 32.85035827 -59.00390625 33.34765625 C-61.62524791 34.2214368 -62.66766721 34.79636679 -64.109375 37.16015625 C-65.68509677 41.01344965 -65.21113443 44.42091944 -64.00390625 48.34765625 C-62.0265231 51.3937407 -59.60698615 53.82902742 -57.00390625 56.34765625 C-55.5651881 57.76308579 -54.12767134 59.17973761 -52.69140625 60.59765625 C-52.03527344 61.2215625 -51.37914062 61.84546875 -50.703125 62.48828125 C-48.9717868 64.38280305 -47.92432971 65.95744663 -47.00390625 68.34765625 C-47.37890625 71.09765625 -47.37890625 71.09765625 -48.00390625 73.34765625 C-48.33390625 73.34765625 -48.66390625 73.34765625 -49.00390625 73.34765625 C-49.34421875 72.01734375 -49.34421875 72.01734375 -49.69140625 70.66015625 C-51.95524151 64.94666727 -56.02050158 62.31293134 -61.00390625 59.03515625 C-66.91995567 54.96181075 -70.64305029 50.51670156 -72.00390625 43.34765625 C-72.00390625 38.72647984 -71.33365096 35.34276981 -69.00390625 31.34765625 C-63.83065695 26.42676058 -60.14809266 25.97265625 -53.1875 25.97265625 C-49.00370821 26.46547099 -46.32588074 28.0262427 -42.94140625 30.44921875 C-42.30203125 30.74570313 -41.66265625 31.0421875 -41.00390625 31.34765625 C-38.96970396 30.55470402 -38.96970396 30.55470402 -37.00390625 29.34765625 C-32.16472943 28.48351753 -28.05493921 28.92832521 -23.75390625 31.34765625 C-17.99471245 35.4203929 -14.61797899 41.35337507 -13.22265625 48.22265625 C-12.16704592 58.47715658 -15.60300063 67.52534789 -21.75390625 75.59765625 C-28.7554349 83.85454216 -37.92120707 90.42409798 -49.00390625 91.34765625 C-49.63425781 91.41082031 -50.26460937 91.47398437 -50.9140625 91.5390625 C-62.98118142 92.21797482 -74.551021 86.78984863 -83.59765625 79.16015625 C-94.87423412 68.5628903 -100.87608462 56.5070137 -101.40429688 41.10522461 C-101.63624082 24.65093816 -97.16484793 11.76844878 -85.81640625 -0.40234375 C-61.16839243 -23.71577814 -24.82469715 -20.46948712 0 0 Z M-44.00390625 43.34765625 C-45.78859891 45.06018252 -45.78859891 45.06018252 -47.00390625 47.34765625 C-46.78673273 49.55566153 -46.78673273 49.55566153 -46.00390625 51.34765625 C-44.68390625 50.68765625 -43.36390625 50.02765625 -42.00390625 49.34765625 C-42.00390625 47.36765625 -42.00390625 45.38765625 -42.00390625 43.34765625 C-42.66390625 43.34765625 -43.32390625 43.34765625 -44.00390625 43.34765625 Z M-42.94140625 115.22265625 C-44.00230469 115.38507813 -45.06320313 115.5475 -46.15625 115.71484375 C-49.1859897 116.20832725 -49.1859897 116.20832725 -52.00390625 118.34765625 C-45.05349539 118.6138422 -38.7687627 117.95970715 -32.00390625 116.34765625 C-36.08691957 113.62564737 -38.20241061 114.47590542 -42.94140625 115.22265625 Z M-50.00390625 137.34765625 C-46.04390625 137.34765625 -42.08390625 137.34765625 -38.00390625 137.34765625 C-37.67390625 136.68765625 -37.34390625 136.02765625 -37.00390625 135.34765625 C-38.79524603 135.29373632 -40.58704524 135.25490054 -42.37890625 135.22265625 C-43.37664062 135.19945312 -44.374375 135.17625 -45.40234375 135.15234375 C-48.16652798 135.07548777 -48.16652798 135.07548777 -50.00390625 137.34765625 Z " fill="#F04362" transform="translate(143.00390625,51.65234375)"/>
<path d="M0 0 C6.80956185 0.24287737 10.49285986 3.11209301 15.6875 7.3125 C16.43322266 7.89451172 17.17894531 8.47652344 17.94726562 9.07617188 C25.24809454 14.82695861 25.24809454 14.82695861 28 18 C28 18.66 28 19.32 28 20 C22.68805588 19.44477339 18.72135382 17.61609835 14.0625 15.1875 C13.38509766 14.84396484 12.70769531 14.50042969 12.00976562 14.14648438 C9.9955039 13.11714449 7.99522042 12.06574389 6 11 C5.33154053 10.64317139 4.66308105 10.28634277 3.97436523 9.91870117 C-0.86857799 7.25511332 -0.86857799 7.25511332 -2.0625 4.9375 C-2 3 -2 3 0 0 Z " fill="#F96E30" transform="translate(19,32)"/>
<path d="M0 0 C2.625 0.3125 2.625 0.3125 4.09375 1.875 C6.04295943 4.97782317 7.41058276 8.22934173 8.75 11.625 C9.01425781 12.26373047 9.27851562 12.90246094 9.55078125 13.56054688 C11.25362382 17.82629717 12.14038049 21.74407465 12.625 26.3125 C8.625 26.3125 8.625 26.3125 5.8125 23.625 C-4.73022497 10.40604485 -4.73022497 10.40604485 -4.12890625 3.4765625 C-3.05792926 0.40235911 -3.05792926 0.40235911 0 0 Z " fill="#FD811A" transform="translate(65.375,-0.3125)"/>
<path d="M0 0 C0.66 1.65 1.32 3.3 2 5 C-1.68395892 8.94959543 -5.4874219 11.83959879 -10.0625 14.6875 C-10.67416016 15.07744141 -11.28582031 15.46738281 -11.91601562 15.86914062 C-20.02891293 21 -20.02891293 21 -24 21 C-23.41853485 17.50640361 -22.23083345 15.86396539 -19.7265625 13.3984375 C-19.0665625 12.74359375 -18.4065625 12.08875 -17.7265625 11.4140625 C-17.03304687 10.74117187 -16.33953125 10.06828125 -15.625 9.375 C-14.93921875 8.694375 -14.2534375 8.01375 -13.546875 7.3125 C-5.8002769 -0.31352848 -5.8002769 -0.31352848 0 0 Z " fill="#F96F30" transform="translate(174,31)"/>
<path d="M0 0 C1.98 0 3.96 0 6 0 C7.21875 2.07421875 7.21875 2.07421875 8 5 C6.9572242 7.53721902 5.94350694 9.52511101 4.5 11.8125 C4.1285083 12.42689941 3.7570166 13.04129883 3.37426758 13.67431641 C-3.11504259 24.25971597 -3.11504259 24.25971597 -6 27 C-6.99 27 -7.98 27 -9 27 C-8.48192665 21.24362945 -7.32285562 16.55126571 -5.0625 11.25 C-4.66514648 10.28126953 -4.66514648 10.28126953 -4.25976562 9.29296875 C-2.9528563 6.13433431 -1.58379681 3.02987217 0 0 Z " fill="#FD821A" transform="translate(128,0)"/>
<path d="M0 0 C0 1.98 0 3.96 0 6 C-17.12632305 13.31862395 -17.12632305 13.31862395 -26 13 C-26.33 12.34 -26.66 11.68 -27 11 C-23.64419298 7.11207013 -20.03339388 5.34674811 -15.4375 3.3125 C-14.76525391 3.00505859 -14.09300781 2.69761719 -13.40039062 2.38085938 C-5.30874656 -1.29131673 -5.30874656 -1.29131673 0 0 Z " fill="#F45251" transform="translate(195,79)"/>
<path d="M0 0 C9.80501581 1.99712131 9.80501581 1.99712131 12.60546875 3.734375 C13.20385742 5.79541016 13.20385742 5.79541016 13.60546875 7.734375 C10.58438973 7.7887001 7.56430347 7.82820427 4.54296875 7.859375 C3.69541016 7.87613281 2.84785156 7.89289063 1.97460938 7.91015625 C-3.22871326 7.95033635 -7.46922946 7.43183315 -12.39453125 5.734375 C-13.08203125 3.921875 -13.08203125 3.921875 -13.39453125 1.734375 C-10.25079517 -3.20578169 -4.92959314 -0.83777541 0 0 Z " fill="#F45151" transform="translate(17.39453125,81.265625)"/>
</svg>
